<?xml version="1.0" encoding="UTF-8"?>
<svg xmlns="http://www.w3.org/2000/svg" xmlns:xlink="http://www.w3.org/1999/xlink" version="1.1" id="Layer_1" x="0px" y="0px" viewBox="0 0 360.3 70.1" style="enable-background:new 0 0 360.3 70.1;" xml:space="preserve">
<style type="text/css">
	.st0{fill:#5A5A5C;}
	.st1{fill:#595A5C;}
	.st2{fill:#5A5B5C;}
</style>
<g>
	<g id="Layer_1_1_">
		<path class="st0" d="M186.1,64.5v-5.1c9.4-0.9,17.2-7.1,20.5-15.5h-5.7c-3.2,6.2-9.7,10.4-17.1,10.4c-10.6,0-19.2-8.6-19.2-19.2    s8.6-19.2,19.2-19.2c7.4,0,13.9,4.2,17.1,10.4h5.7c-3.3-8.4-11.1-14.6-20.5-15.5V5.6c12.1,1,22.1,9.4,25.6,20.6h5.7    C213.5,11.1,199.8,0,183.5,0c-19.3,0-35.1,15.7-35.1,35.1s15.7,35.1,35.1,35.1c16.3,0,30-11.1,33.9-26.2h-5.7    C208.2,55.1,198.2,63.5,186.1,64.5L186.1,64.5L186.1,64.5z M153.9,35c0-15.1,11.3-27.5,25.9-29.3v5.2c-11.6,1.9-20.5,12-20.5,24.1    s8.9,22.2,20.5,24.1v5.2C165.2,62.5,153.9,50.1,153.9,35L153.9,35L153.9,35z"/>
		<g>
			<path class="st1" d="M247.4,47.4c-0.8,0.5-1.7,0.7-2.8,0.7c-1.1,0-2.1-0.3-2.9-0.8c-0.9-0.5-1.6-1.3-2.2-2.2     c-0.6-0.9-1-2.1-1.4-3.4c-0.3-1.3-0.5-2.7-0.5-4.2s0.2-2.9,0.5-4.2c0.3-1.3,0.8-2.4,1.4-3.4s1.3-1.7,2.2-2.2s1.8-0.8,2.9-0.8     c1,0,1.8,0.2,2.7,0.6c0.8,0.4,1.5,1,2.1,1.9l-1.3,1.3c-0.4-0.7-1-1.2-1.5-1.5s-1.2-0.5-1.8-0.5c-0.8,0-1.6,0.2-2.2,0.7     s-1.1,1.1-1.5,1.9s-0.7,1.7-0.9,2.8s-0.3,2.2-0.3,3.4s0.1,2.3,0.3,3.4s0.5,2,0.9,2.8s0.9,1.4,1.5,1.9s1.3,0.7,2.2,0.7     c0.7,0,1.4-0.2,2-0.6s1.1-0.9,1.5-1.6l1.2,1.3C248.9,46.2,248.2,46.9,247.4,47.4L247.4,47.4L247.4,47.4z"/>
			<path class="st1" d="M265.6,47.6l-3.6-9.4h-2.6v9.4h-2V27.4h4.9c0.7,0,1.3,0.1,1.9,0.3c0.6,0.2,1.2,0.5,1.6,0.9     c0.5,0.4,0.9,1,1.2,1.7c0.3,0.7,0.4,1.5,0.4,2.5c0,0.9-0.1,1.6-0.3,2.2c-0.2,0.6-0.5,1.1-0.9,1.6c-0.4,0.4-0.7,0.7-1.2,1     c-0.4,0.2-0.9,0.4-1.3,0.4l3.9,9.7L265.6,47.6L265.6,47.6L265.6,47.6z M265.5,32.9c0-0.7-0.1-1.3-0.3-1.8     c-0.2-0.5-0.5-0.9-0.8-1.1s-0.7-0.5-1.1-0.6c-0.4-0.1-0.9-0.2-1.3-0.2h-2.6v7.6h2.6c1.1,0,1.9-0.3,2.5-1S265.4,34.1,265.5,32.9     L265.5,32.9L265.5,32.9z"/>
			<path class="st1" d="M276.1,47.6V27.4h8.1v1.8H278v7.1h5.8V38H278v7.8h6.5v1.8L276.1,47.6L276.1,47.6L276.1,47.6z"/>
			<path class="st1" d="M304.8,37.5c0,1.6-0.2,3.1-0.5,4.4c-0.3,1.3-0.8,2.3-1.5,3.1c-0.6,0.9-1.4,1.5-2.3,1.9     c-0.9,0.4-1.9,0.6-3,0.6h-4.3V27.4h4.4c1.1,0,2.1,0.2,3,0.6c0.9,0.4,1.7,1.1,2.3,1.9c0.6,0.9,1.1,1.9,1.5,3.2     C304.6,34.4,304.8,35.9,304.8,37.5L304.8,37.5L304.8,37.5z M302.8,37.5c0-1.4-0.1-2.7-0.4-3.7c-0.3-1.1-0.7-1.9-1.1-2.6     s-1-1.2-1.7-1.5s-1.4-0.5-2.1-0.5h-2.3v16.8h2.3c0.8,0,1.5-0.2,2.1-0.5c0.6-0.3,1.2-0.9,1.7-1.5c0.5-0.7,0.9-1.6,1.1-2.6     C302.7,40.2,302.8,39,302.8,37.5z"/>
			<path class="st1" d="M313.7,47.6V27.4h2v20.2H313.7z"/>
			<path class="st1" d="M329,29.1v18.5h-2V29.1h-3.9v-1.7h9.8v1.7H329L329,29.1z"/>
			<path class="st1" d="M349.1,42.4c0,0.9-0.1,1.7-0.4,2.4s-0.6,1.3-1.1,1.8s-1,0.9-1.6,1.1c-0.6,0.3-1.3,0.4-2,0.4     c-1,0-2-0.2-2.8-0.6c-0.9-0.4-1.6-1-2.1-1.7l1.2-1.4c0.4,0.6,1,1.1,1.6,1.4s1.3,0.5,2,0.5c0.9,0,1.7-0.3,2.3-1s0.9-1.6,0.9-2.8     c0-0.6-0.1-1.1-0.3-1.5c-0.2-0.4-0.5-0.8-0.8-1.2c-0.3-0.3-0.7-0.6-1.1-0.9c-0.4-0.3-0.8-0.5-1.3-0.7c-0.5-0.3-1.1-0.6-1.6-0.9     c-0.5-0.3-0.9-0.7-1.3-1.1s-0.7-1-0.9-1.6s-0.3-1.3-0.3-2.1c0-0.9,0.1-1.7,0.4-2.4c0.3-0.7,0.7-1.3,1.1-1.7c0.5-0.5,1-0.8,1.6-1     c0.6-0.2,1.2-0.3,1.9-0.3c0.9,0,1.7,0.2,2.5,0.5s1.4,0.8,1.8,1.5l-1.2,1.4c-0.4-0.6-0.8-0.9-1.3-1.2s-1.1-0.4-1.7-0.4     c-0.4,0-0.8,0.1-1.2,0.2c-0.4,0.1-0.7,0.4-1,0.7c-0.3,0.3-0.5,0.7-0.7,1.2s-0.3,1-0.3,1.7c0,0.6,0.1,1.1,0.3,1.5s0.4,0.8,0.7,1.1     s0.6,0.6,1,0.9s0.8,0.5,1.2,0.7c0.5,0.3,1.1,0.6,1.6,0.9s1,0.7,1.4,1.2s0.8,1,1,1.6S349,41.6,349.1,42.4L349.1,42.4L349.1,42.4z"/>
		</g>
		<g>
			<path class="st1" d="M10.6,47.4c-0.8,0.5-1.9,0.7-3.1,0.7c-1.1,0-2.2-0.3-3.1-0.8S2.6,46,2,45.1S0.9,43,0.5,41.8     C0.2,40.5,0,39,0,37.5s0.2-3,0.5-4.3s0.8-2.4,1.5-3.4s1.4-1.7,2.3-2.2s1.9-0.8,3.1-0.8s2.2,0.2,3,0.6s1.6,1,2.1,1.8l-2,2.4     c-0.8-1.1-1.8-1.7-3-1.7c-0.7,0-1.3,0.2-1.8,0.6s-0.9,0.9-1.3,1.6c-0.3,0.7-0.6,1.4-0.8,2.4c-0.2,0.9-0.3,1.9-0.3,2.9     s0.1,2,0.3,2.9c0.2,0.9,0.4,1.7,0.8,2.4c0.3,0.7,0.8,1.2,1.3,1.6c0.5,0.4,1.1,0.6,1.8,0.6s1.2-0.2,1.7-0.5s0.9-0.8,1.2-1.2l2,2.3     C12.1,46.3,11.4,46.9,10.6,47.4L10.6,47.4z"/>
			<path class="st1" d="M33.5,37.5c0,1.6-0.2,3-0.5,4.4c-0.3,1.3-0.8,2.4-1.4,3.4c-0.6,0.9-1.4,1.6-2.3,2.2c-0.9,0.5-1.9,0.8-3,0.8     s-2.2-0.3-3.1-0.8c-0.9-0.5-1.7-1.2-2.3-2.2c-0.6-0.9-1.1-2.1-1.4-3.4c-0.3-1.3-0.5-2.8-0.5-4.4s0.2-3,0.5-4.3s0.8-2.4,1.4-3.3     c0.6-0.9,1.4-1.6,2.3-2.1s1.9-0.8,3.1-0.8s2.1,0.2,3,0.8c0.9,0.5,1.7,1.2,2.3,2.1c0.6,0.9,1.1,2,1.4,3.3     C33.3,34.4,33.5,35.9,33.5,37.5z M29.9,37.5c0-1-0.1-2-0.2-2.9c-0.2-0.9-0.4-1.7-0.7-2.3c-0.3-0.6-0.7-1.2-1.2-1.6     s-1-0.6-1.6-0.6s-1.2,0.2-1.6,0.6s-0.9,0.9-1.2,1.6c-0.3,0.7-0.6,1.4-0.7,2.3c-0.2,0.9-0.2,1.9-0.2,2.9s0.1,2,0.2,2.9     s0.4,1.7,0.7,2.4c0.3,0.7,0.7,1.2,1.2,1.6s1,0.6,1.6,0.6s1.2-0.2,1.6-0.6c0.5-0.4,0.8-0.9,1.2-1.6c0.3-0.7,0.6-1.4,0.7-2.4     C29.9,39.5,29.9,38.5,29.9,37.5L29.9,37.5z"/>
			<path class="st1" d="M50.6,47.6l-5.7-14.2h-0.1l0.1,14.2h-3.1V27.4h3.9l5.7,14.3h0.1l0-14.3h3v20.2     C54.4,47.6,50.6,47.6,50.6,47.6z"/>
			<path class="st1" d="M68.7,30.3v17.3h-3.4V30.3h-3.8v-2.9h10.9v2.9C72.5,30.3,68.7,30.3,68.7,30.3z"/>
			<path class="st1" d="M79.6,47.6V27.4h9v3h-5.8v5.4h5.3v2.8h-5.3v6h6v3.1L79.6,47.6L79.6,47.6L79.6,47.6z"/>
			<path class="st1" d="M106,47.6l-5.7-14.2h-0.1l0.1,14.2h-3.1V27.4h3.9l5.7,14.3h0.1l0-14.3h3v20.2H106L106,47.6z"/>
			<path class="st1" d="M124,30.3v17.3h-3.4V30.3h-3.8v-2.9h10.9v2.9H124z"/>
		</g>
		<g>
			<path class="st2" d="M354.5,27.4v4.4h-0.6v-4.4h-1v-0.5h2.5v0.5H354.5L354.5,27.4z"/>
			<path class="st2" d="M359.7,31.9v-4.1h0l-1.1,4.1H358l-1.1-4.1h0v4.1h-0.6v-5h0.9l1.1,3.9h0l1-3.9h1v5H359.7L359.7,31.9z"/>
		</g>
	</g>
</g>
</svg>
